<svg width="23" height="23" viewBox="0 0 23 23" fill="none" xmlns="http://www.w3.org/2000/svg">
<path d="M3.34125 0.610184C2.51983 0.748341 1.77687 1.13518 1.17695 1.73387C0.733939 2.18058 0.544736 2.45689 0.300156 3.03255C-0.0182596 3.76478 0.000199252 3.29505 0.000199252 11.6306C0.000199252 19.7865 -0.00903018 19.4641 0.254009 20.1549C0.433983 20.6384 0.710866 21.0713 1.10312 21.4812C1.6615 22.0661 2.26141 22.4161 3.05514 22.6279L3.43816 22.7292L10.7986 22.7477C16.0363 22.7569 18.2929 22.7477 18.616 22.7108C19.5758 22.6003 20.3511 22.2365 21.0156 21.5779C21.5094 21.0898 21.8001 20.6154 22.0401 19.9016L22.1739 19.5102V11.6812V3.85228L22.0678 3.48847C21.6801 2.14834 20.6741 1.13979 19.3128 0.711498L18.8975 0.582552L11.237 0.577946C7.0238 0.573341 3.47047 0.587156 3.34125 0.610184ZM8.25593 8.91346C9.81109 10.4056 11.0709 11.6444 11.0663 11.6628C11.0571 11.6812 9.77879 12.92 8.22363 14.4167L5.39019 17.1385L4.65645 16.4338C4.25497 16.0516 3.92271 15.7108 3.92732 15.6878C3.92732 15.6602 4.86411 14.7483 6.00395 13.6615C7.13917 12.57 8.07134 11.6674 8.07595 11.6536C8.07595 11.6352 7.14378 10.7233 5.99933 9.62728C4.8595 8.53122 3.92271 7.62399 3.92271 7.61017C3.92271 7.5503 5.33481 6.17794 5.38096 6.18715C5.41326 6.19636 6.70538 7.42136 8.25593 8.91346ZM18.3206 16.2865V17.1385H15.6441H12.9676V16.2865V15.4345H15.6441H18.3206V16.2865Z" fill="white"/>
</svg>
